<svg id="wh-logo" xmlns="http://www.w3.org/2000/svg" width="966.5" height="500" viewBox="0 0 966.5 500" overflow="visible"><path fill="#9E9285" d="M868.5 262.25c-35.5 0-40.5 21.5-40.5 37.5 0 13 2 26.5 3.5 40 2.5 13.5 4.5 27.5 4.5 41 0 50.5-31.5 68.5-72.5 68.5H753v-27.5h8.5c28-.5 40-15.5 40-43.5 0-12-2-23.5-3.5-36-2-12-4-24.5-4-38-.5-32 14-49 36-54.5v-1c-22-6-36.5-22-36-54 0-13.5 2-25.5 4-38 1.5-12 3.5-24 3.5-35.5 0-27-10.5-42.5-40-43H753v-27.5h10c42.5 0 73 19.5 73 65.5 0 13.5-2 27.5-4 41.5s-4 28-4 42c0 17.5 5 37 40.5 37v25.5z"/><path fill="#9E9285" d="M966.5 262.25c-35.5 0-40.5 21.5-40.5 37.5 0 13 2 26.5 3.5 40 2.5 13.5 4.5 27.5 4.5 41 0 50.5-31.5 68.5-72.5 68.5H851v-27.5h8.5c28-.5 40-15.5 40-43.5 0-12-2-23.5-3.5-36-2-12-4-24.5-4-38-.5-32 14-49 36-54.5v-1c-22-6-36.5-22-36-54 0-13.5 2-25.5 4-38 1.5-12 3.5-24 3.5-35.5 0-27-10.5-42.5-40-43H851v-27.5h10c42.5 0 73 19.5 73 65.5 0 13.5-2 27.5-4 41.5s-4 28-4 42c0 17.5 5 37 40.5 37v25.5z"/><g fill="#9E9285"><path d="M733.25 250c0 138.071-111.929 250-250 250s-250-111.929-250-250S345.179 0 483.25 0s250 111.929 250 250zm-250-235c-129.787 0-235 105.213-235 235s105.213 235 235 235 235-105.213 235-235-105.213-235-235-235z"/><path d="M483.256 35.041c56.076 0 107.133 21.488 145.406 56.671-18.76-.503-37.48 10.647-38.254 36.183-1.578 51.62 61.727 62.616 27.615 166.448l-28.215 85.886-76.846-226.364c-1.191-3.504.193-5.498 4.5-5.498h21.727c1.129 0 2.051-.964 2.051-2.146v-12.867c0-1.18-.924-2.193-2.051-2.145-41.143 1.799-82.043 1.812-122.697 0-1.133-.049-2.053.969-2.053 2.148v12.869c0 1.179.924 2.145 2.053 2.145h21.844c4.859 0 6.221 1.619 7.365 4.751l31.574 86.351-47.495 143.422-78.075-229.966c-.968-2.885.203-4.56 2.981-4.56h24.891c1.129 0 2.052-.964 2.052-2.145v-12.867c0-1.181-.927-2.204-2.052-2.145-26.115 1.387-52.33 1.666-76.75 1.916 38.32-59.029 104.81-98.092 180.416-98.092l.013.005zm189.06 112.602c16.518 30.434 25.896 65.303 25.896 102.352 0 81.313-45.178 152.084-111.787 188.615l67.039-189.883c10.387-29.387 20.027-69.103 18.846-101.084h.006z"/><path d="M555.223 452.586c-22.504 8.006-46.723 12.371-71.967 12.371-21.75 0-42.734-3.244-62.519-9.244l66.222-189.776 68.264 186.659v-.01zm-163.951-8.266c-72.693-34.477-122.979-108.537-122.979-194.316 0-31.799 6.918-61.986 19.316-89.145l103.667 283.465h.001l-.005-.004z"/></g><g fill="#9E9285"><path d="M98 236.75c35.5 0 40.5-19.5 40.5-37 0-14-2-28-4-42s-4-28-4-41.5c0-46 30.5-65.5 73-65.5h10v27.5H205c-29.5.5-40 16-40 43 0 11.5 2 23.5 3.5 35.5 2 12.5 4 24.5 4 38 .5 32-14 48-36 54v1c22 5.5 36.5 22.5 36 54.5 0 13.5-2 26-4 38-1.5 12.5-3.5 24-3.5 36 0 28 12 43 40 43.5h8.5v27.5H203c-41 0-72.5-18-72.5-68.5 0-13.5 2-27.5 4.5-41 1.5-13.5 3.5-27 3.5-40 0-16-5-37.5-40.5-37.5v-25.5z"/><path d="M0 236.75c35.5 0 40.5-19.5 40.5-37 0-14-2-28-4-42s-4-28-4-41.5c0-46 30.5-65.5 73-65.5h10v27.5H107c-29.5.5-40 16-40 43 0 11.5 2 23.5 3.5 35.5 2 12.5 4 24.5 4 38 .5 32-14 48-36 54v1c22 5.5 36.5 22.5 36 54.5 0 13.5-2 26-4 38-1.5 12.5-3.5 24-3.5 36 0 28 12 43 40 43.5h8.5v27.5H105c-41 0-72.5-18-72.5-68.5 0-13.5 2-27.5 4.5-41 1.5-13.5 3.5-27 3.5-40 0-16-5-37.5-40.5-37.5v-25.5z"/></g></svg>